Coordinates
version=1
nRows=14
nColumns=40
inDegrees=yes

Units are S.I. units (second, meters, Newtons, ...)
If the header above contains a line with 'inDegrees', this indicates whether rotational values are in degrees (yes) or radians (no).

endheader
time	pelvis_tilt	pelvis_list	pelvis_rotation	pelvis_tx	pelvis_ty	pelvis_tz	hip_flexion_r	hip_adduction_r	hip_rotation_r	knee_angle_r	knee_angle_r_beta	ankle_angle_r	subtalar_angle_r	mtp_angle_r	hip_flexion_l	hip_adduction_l	hip_rotation_l	knee_angle_l	knee_angle_l_beta	ankle_angle_l	subtalar_angle_l	mtp_angle_l	lumbar_extension	lumbar_bending	lumbar_rotation	arm_flex_r	arm_add_r	arm_rot_r	elbow_flex_r	pro_sup_r	wrist_flex_r	wrist_dev_r	arm_flex_l	arm_add_l	arm_rot_l	elbow_flex_l	pro_sup_l	wrist_flex_l	wrist_dev_l
      3.63500000	    -19.25845264	     -1.26974761	      5.91186434	     -0.39960170	      0.56311415	     -0.88450653	     93.01226792	    -24.30394800	      1.15458836	    116.30893753	      2.02997391	     43.41280774	      0.00000000	      0.00000000	     99.10043355	    -28.67187837	      0.58120784	    113.09744540	      1.97392280	     32.34619452	      0.00000000	      0.00000000	    -31.42022988	     -1.23206031	      0.38059430	     35.90844648	    -56.16471272	     89.68065708	    115.66600194	     88.67746563	      0.00000000	      0.00000000	     29.76203795	    -62.20902585	     89.66067009	    114.85411801	     88.66517447	      0.00000000	      0.00000000
      3.64000000	    -18.99721056	     -1.19018968	      6.08117493	     -0.39937065	      0.56391751	     -0.88498313	     92.68779333	    -24.56369941	      1.17903286	    116.30034846	      2.02982400	     43.44625478	      0.00000000	      0.00000000	     98.68299408	    -28.49963100	      0.42104576	    113.05604605	      1.97320024	     32.35633625	      0.00000000	      0.00000000	    -31.76809311	     -1.18383064	      0.23492326	     35.93021515	    -56.14858613	     89.68059338	    115.57955574	     88.66761456	      0.00000000	      0.00000000	     29.84359726	    -62.12007865	     89.66209187	    114.72909097	     88.66138163	      0.00000000	      0.00000000
      3.64500000	    -19.01432881	     -1.17205055	      6.07907889	     -0.39951309	      0.56391687	     -0.88497483	     92.73079382	    -24.55548439	      1.19630422	    116.30075366	      2.02983107	     43.45306917	      0.00000000	      0.00000000	     98.67363582	    -28.48647279	      0.39637271	    113.01753682	      1.97252813	     32.39101029	      0.00000000	      0.00000000	    -31.79199609	     -1.20969395	      0.21577178	     35.93668550	    -56.15606885	     89.67978483	    115.60632356	     88.67696240	      0.00000000	      0.00000000	     29.81928196	    -62.14158364	     89.66009419	    114.76685299	     88.67616562	      0.00000000	      0.00000000
      3.65000000	    -19.18124348	     -1.01611139	      6.35533165	     -0.40002687	      0.56371797	     -0.88579013	     93.04833948	    -24.91420835	      1.46368967	    116.29564166	      2.02974185	     43.37645977	      0.00000000	      0.00000000	     98.70516779	    -28.06946718	      0.12126820	    112.95766347	      1.97148314	     32.38284206	      0.00000000	      0.00000000	    -31.68921934	     -1.20506475	     -0.11196365	     35.92656599	    -56.19361417	     89.67985705	    115.66112899	     88.67566827	      0.00000000	      0.00000000	     29.83523813	    -62.12593883	     89.66087041	    114.76455028	     88.67722112	      0.00000000	      0.00000000
      3.65500000	    -19.06093992	     -1.03162065	      6.27903890	     -0.39998396	      0.56411438	     -0.88558619	     92.86748852	    -24.81492045	      1.39049395	    116.25959458	      2.02911271	     43.42114862	      0.00000000	      0.00000000	     98.57759856	    -28.19098489	      0.15084971	    112.94120386	      1.97119587	     32.38301597	      0.00000000	      0.00000000	    -31.87239720	     -1.23400372	     -0.04410797	     35.94074104	    -56.19389395	     89.67976207	    115.63216646	     88.66919720	      0.00000000	      0.00000000	     29.87692285	    -62.11206134	     89.66480673	    114.74888729	     88.66593762	      0.00000000	      0.00000000
      3.66000000	    -19.48662989	     -1.10800975	      6.33836574	     -0.40076788	      0.56320297	     -0.88571382	     93.40613511	    -24.81687425	      1.43164920	    116.21179642	      2.02827848	     43.35295913	      0.00000000	      0.00000000	     99.14833747	    -28.01149353	      0.22421948	    112.92957368	      1.97099288	     32.31790541	      0.00000000	      0.00000000	    -31.43081474	     -1.16858828	     -0.08763716	     35.88907661	    -56.24145028	     89.68179820	    115.69595857	     88.67213726	      0.00000000	      0.00000000	     29.79535227	    -62.15601484	     89.66211985	    114.78757915	     88.67558407	      0.00000000	      0.00000000
      3.66500000	    -19.12550890	     -1.07122394	      6.30169432	     -0.40050291	      0.56437893	     -0.88565591	     92.92301515	    -24.82724007	      1.31296214	    116.17540531	      2.02764333	     43.34998749	      0.00000000	      0.00000000	     98.65726283	    -28.07994395	      0.19237110	    112.87561170	      1.97005107	     32.25404596	      0.00000000	      0.00000000	    -31.92298521	     -1.19491754	     -0.01425916	     35.96541215	    -56.25770104	     89.68447993	    115.66634370	     88.63666604	      0.00000000	      0.00000000	     29.93571483	    -62.06021473	     89.67465833	    114.66374715	     88.58888059	      0.00000000	      0.00000000
      3.67000000	    -19.23702218	     -1.05024292	      6.45410474	     -0.40085029	      0.56455076	     -0.88599207	     93.04890264	    -24.98245502	      1.38110344	    116.11157512	      2.02652929	     43.33867155	      0.00000000	      0.00000000	     98.70477322	    -27.88062375	      0.06981757	    112.76681909	      1.96815228	     32.30991286	      0.00000000	      0.00000000	    -31.88208875	     -1.13951548	     -0.21765556	     35.98507224	    -56.22042443	     89.68164992	    115.66766233	     88.68018296	      0.00000000	      0.00000000	     29.84472961	    -62.11305694	     89.66398655	    114.71411886	     88.67358449	      0.00000000	      0.00000000
      3.67500000	    -19.22113320	     -1.10395095	      6.37402758	     -0.40104699	      0.56489578	     -0.88569564	     92.98054592	    -24.84773061	      1.28654517	    116.04606644	      2.02538594	     43.24811383	      0.00000000	      0.00000000	     98.71051892	    -27.98304458	      0.12547611	    112.71946983	      1.96732588	     32.31545456	      0.00000000	      0.00000000	    -31.97396834	     -1.14835285	     -0.12793950	     36.01683623	    -56.22981956	     89.68351532	    115.71039898	     88.68316812	      0.00000000	      0.00000000	     29.88891685	    -62.13132199	     89.66779440	    114.73170333	     88.63766402	      0.00000000	      0.00000000
      3.68000000	    -19.19875555	     -1.29095521	      6.17834336	     -0.40107072	      0.56528378	     -0.88506300	     92.79377926	    -24.55736442	      0.98728766	    115.93382343	      2.02342693	     43.33164145	      0.00000000	      0.00000000	     98.83809611	    -28.22942613	      0.40626873	    112.69959372	      1.96697898	     32.25455204	      0.00000000	      0.00000000	    -32.05116962	     -1.10240494	      0.11084964	     36.01152826	    -56.19406974	     89.68386551	    115.67598110	     88.68658299	      0.00000000	      0.00000000	     29.81888111	    -62.15915002	     89.66489427	    114.72879656	     88.66464595	      0.00000000	      0.00000000
      3.68500000	    -19.44299143	     -1.15468276	      6.55440870	     -0.40176382	      0.56532520	     -0.88612549	     93.15522461	    -25.04984106	      1.19740383	    115.87618453	      2.02242094	     43.31230073	      0.00000000	      0.00000000	     98.90862925	    -27.65575459	      0.11291185	    112.55151776	      1.96439456	     32.18749014	      0.00000000	      0.00000000	    -31.89650593	     -1.01498206	     -0.28180928	     35.99535351	    -56.22630551	     89.68302491	    115.65331070	     88.67870993	      0.00000000	      0.00000000	     29.83498034	    -62.07569530	     89.66681650	    114.69392339	     88.66190695	      0.00000000	      0.00000000
      3.69000000	    -19.45060916	     -1.09122863	      6.42211015	     -0.40198537	      0.56606136	     -0.88574473	     93.13512722	    -24.84239167	      1.25793103	    115.75693617	      2.02033967	     43.22465182	      0.00000000	      0.00000000	     98.77297843	    -27.81632551	     -0.02294301	    112.43093571	      1.96229001	     32.25163033	      0.00000000	      0.00000000	    -32.01698261	     -1.16714542	     -0.25198915	     36.04785826	    -56.15786654	     89.68421598	    115.59789877	     88.67619861	      0.00000000	      0.00000000	     29.81518662	    -62.13094083	     89.66451986	    114.63789788	     88.67614796	      0.00000000	      0.00000000
      3.69500000	    -19.37181689	     -1.25470174	      6.11049212	     -0.40192703	      0.56683534	     -0.88484798	     92.86164677	    -24.40142836	      0.94796103	    115.61695610	      2.01789656	     43.33674930	      0.00000000	      0.00000000	     98.79025963	    -28.21289390	      0.22793190	    112.38535750	      1.96149452	     32.18552757	      0.00000000	      0.00000000	    -32.18312009	     -1.21173143	      0.11421371	     36.03990513	    -56.14328052	     89.68183969	    115.59269945	     88.66574314	      0.00000000	      0.00000000	     29.85901319	    -62.13594489	     89.67239466	    114.67976032	     88.63364477	      0.00000000	      0.00000000
      3.70000000	    -19.19685006	     -1.29086913	      6.27439246	     -0.40192361	      0.56792951	     -0.88530360	     92.54005679	    -24.62984202	      0.81142004	    115.50337827	      2.01591425	     43.28886978	      0.00000000	      0.00000000	     98.53646709	    -27.99745347	      0.21924712	    112.29382659	      1.95989700	     32.12437649	      0.00000000	      0.00000000	    -32.47980448	     -1.04926088	     -0.00075484	     36.11899697	    -56.15725051	     89.68547136	    115.63800657	     88.67891005	      0.00000000	      0.00000000	     29.90240371	    -62.06037528	     89.66916404	    114.65447108	     88.67409600	      0.00000000	      0.00000000
